<?xml version="1.0" encoding="utf-8"?>
<!-- Generator: Adobe Illustrator 24.1.3, SVG Export Plug-In . SVG Version: 6.00 Build 0)  -->
<svg version="1.1" xmlns="http://www.w3.org/2000/svg" xmlns:xlink="http://www.w3.org/1999/xlink" x="0px" y="0px"
	 viewBox="0 0 2166 586" style="enable-background:new 0 0 2166 586;" xml:space="preserve">
<style type="text/css">
	.st0{fill:#F2F2F2;}
	.st1{stroke:#FFFFFF;stroke-width:0.477;stroke-miterlimit:10;}
	.st2{fill:#FFFFFF;}
	.st3{fill:#00FF00;}
	.st4{fill:none;stroke:#000000;stroke-width:2.4452;stroke-linecap:round;stroke-miterlimit:10;}
	.st5{fill:none;stroke:#FFFFFF;stroke-width:2.4452;stroke-miterlimit:10;}
	.st6{fill:none;stroke:#000000;stroke-width:1.9082;stroke-miterlimit:10;}
	.st7{fill:none;stroke:#000000;stroke-width:1.9784;stroke-miterlimit:10;}
	.st8{fill:none;stroke:#000000;stroke-width:2.4452;stroke-miterlimit:10;}
	.st9{stroke:#000000;stroke-width:1.4311;stroke-linecap:round;stroke-miterlimit:10;}
	.st10{stroke:#FFFFFF;stroke-width:2.8623;stroke-miterlimit:10;}
</style>
<g id="BACKGROUND">
	<rect width="2166" height="586"/>
</g>
<g id="Capa_1">
	<g>
		<path class="st0" d="M531.28,403.77c0.94,5.17,1.82,10.8,2.64,16.9c0.82,6.11,1.58,12.38,2.29,18.83
			c0.7,6.46,1.29,12.91,1.76,19.36c0.47,6.46,0.7,12.5,0.7,18.13c-4.93,1.41-9.51,2.99-13.73,4.75c-4.22,1.76-8.57,3.47-13.03,5.1
			c-4.46,1.65-9.27,2.99-14.43,4.05c-5.17,1.06-11.15,1.58-17.95,1.58c-15.73,0-28.75-3.47-39.08-10.39
			c-10.33-6.92-18.54-16.02-24.64-27.28c-6.11-11.27-10.39-24.17-12.85-38.73c-2.46-14.55-3.7-29.57-3.7-45.06
			s1.11-31.33,3.34-47.53c2.23-16.19,6.39-30.86,12.5-44.01c6.1-13.14,14.55-23.88,25.35-32.21c10.79-8.33,24.88-12.5,42.25-12.5
			c8.92,0,16.37,0.65,22.36,1.94c5.99,1.29,11.09,2.99,15.31,5.1s7.98,4.52,11.27,7.22c3.28,2.7,6.69,5.46,10.21,8.27
			c-1.18,9.86-3.46,21.18-6.86,33.97c-3.41,12.79-6.87,25.88-10.39,39.25c-3.29-10.33-6.57-18.77-9.86-25.35
			c-3.29-6.57-6.51-11.73-9.68-15.49c-3.17-3.75-6.28-6.28-9.33-7.57c-3.05-1.29-5.99-1.82-8.8-1.58
			c-6.11,0.7-11.15,3.99-15.14,9.86c-3.99,5.87-7.28,13.38-9.86,22.53c-2.59,9.15-4.4,19.6-5.46,31.33
			c-1.06,11.74-1.58,23.82-1.58,36.26c0,9.86,0.7,19.01,2.11,27.46s3.52,15.79,6.34,22c2.82,6.22,6.28,11.03,10.38,14.43
			c4.1,3.41,8.86,5.1,14.26,5.1c5.63,0,10.5-1,14.61-2.99c4.1-1.99,7.8-4.93,11.09-8.8c3.28-3.87,6.28-8.63,8.98-14.26
			C525.35,417.86,528.23,411.29,531.28,403.77z"/>
		<path class="st0" d="M641.12,231.27c1.17,1.18,2.23,2.7,3.17,4.58c13.61,0.24,25.35,3.41,35.21,9.51
			c9.86,6.11,18.01,14.49,24.47,25.17c6.45,10.68,11.21,23.53,14.26,38.55c3.05,15.02,4.58,31.45,4.58,49.29
			c0,43.89-7.51,77.45-22.53,100.69c-15.02,23.24-36.26,34.85-63.72,34.85c-14.79,0-27.34-3.23-37.67-9.68
			c-10.33-6.45-18.72-15.43-25.17-26.93c-6.46-11.5-11.21-24.93-14.26-40.31c-3.05-15.37-4.58-32.09-4.58-50.17
			c0-22.06,2.05-41.42,6.16-58.09c4.1-16.66,9.97-30.68,17.6-42.07c7.62-11.38,16.72-20.01,27.28-25.88
			C616.48,234.91,628.21,231.74,641.12,231.27z M665.77,359.77c0-10.79-0.35-21.06-1.06-30.8c-0.7-9.74-2-18.36-3.87-25.88
			c-1.88-7.51-4.4-13.49-7.57-17.96c-3.17-4.46-7.22-6.8-12.15-7.04c-5.4,0.47-9.92,3.52-13.55,9.15
			c-3.64,5.63-6.57,12.79-8.8,21.48c-2.23,8.69-3.87,18.31-4.93,28.87c-1.06,10.56-1.58,20.89-1.58,30.98
			c0,10.56,0.41,20.77,1.23,30.63c0.82,9.86,2.23,18.6,4.22,26.23c1.99,7.63,4.63,13.79,7.92,18.48c3.28,4.7,7.39,7.04,12.32,7.04
			c5.16,0,9.51-2.58,13.03-7.75c3.52-5.16,6.39-12.02,8.63-20.59c2.23-8.56,3.81-18.31,4.75-29.22
			C665.29,382.47,665.77,371.27,665.77,359.77z"/>
		<path class="st0" d="M805.88,486.15c-10.33,1.88-20.95,2.87-31.86,2.99c-10.91,0.12-21.77-0.41-32.56-1.58
			c2.58-4.93,4.28-9.8,5.1-14.61c0.82-4.81,1.35-9.21,1.58-13.2c0.23-9.15,0.47-19.3,0.7-30.45c0.23-11.15,0.41-22.82,0.53-35.03
			c0.12-12.2,0.23-24.47,0.35-36.79c0.12-12.32,0.18-24.35,0.18-36.08c0-10.79,0-21,0-30.63c0-9.62-0.12-18.54-0.35-26.76
			c0-8.68-2.46-16.78-7.39-24.29c9.86-0.94,19.65-1.52,29.4-1.76c9.74-0.23,19.65-0.12,29.75,0.35
			c3.75,11.27,7.33,21.71,10.74,31.33c3.4,9.63,6.87,19.13,10.39,28.52c3.52,9.39,7.22,19.07,11.09,29.04
			c3.87,9.98,8.39,20.95,13.55,32.92c0.23-6.8,0.41-13.26,0.53-19.36c0.12-6.1,0.18-12.61,0.18-19.54c0-6.92,0-14.61,0-23.06
			s0-18.54,0-30.28c0-4.93-0.47-9.74-1.41-14.43c-0.94-4.69-2.46-9.03-4.58-13.03c20.65-2.82,41.66-3.17,63.02-1.06
			c-3.99,6.11-6.51,11.79-7.57,17.08c-1.06,5.28-1.58,10.27-1.58,14.96c-0.24,9.15-0.41,18.66-0.53,28.52
			c-0.12,9.86-0.3,20.83-0.53,32.92c-0.24,12.09-0.41,25.76-0.53,41.01c-0.12,15.26-0.18,32.74-0.18,52.46
			c0,9.86,0.41,19.89,1.23,30.1c0.82,10.21,2.17,20.59,4.05,31.16c-6.81,0.94-14.08,1.58-21.83,1.94
			c-7.75,0.35-15.49,0.53-23.24,0.53c-3.99-7.98-8.39-16.95-13.2-26.93c-4.81-9.97-9.8-20.54-14.96-31.68
			c-5.17-11.15-10.33-22.71-15.49-34.68c-5.17-11.97-9.98-23.94-14.43-35.91c-1.41,29.81-1.06,61.14,1.06,94
			c0.47,4.93,1.23,9.86,2.29,14.79C800.43,474.54,802.59,480.05,805.88,486.15z"/>
		<path class="st0" d="M918.19,482.63c3.28-3.28,5.4-7.8,6.34-13.55c0.94-5.75,1.41-10.74,1.41-14.96c0-30.04,0.23-60.03,0.7-89.95
			c0.47-29.92,1.06-60.96,1.76-93.12c-0.7-4.46-1.76-8.63-3.17-12.5c-1.41-3.87-3.52-8.74-6.34-14.61
			c3.99-0.94,8.63-1.82,13.91-2.64c5.28-0.82,10.68-1.52,16.19-2.11c5.51-0.58,11.03-1.06,16.55-1.41
			c5.51-0.35,10.5-0.53,14.96-0.53c17.83,0,32.97,2.7,45.41,8.1c12.44,5.4,22.59,13.38,30.45,23.94
			c7.86,10.56,13.55,23.76,17.07,39.61c3.52,15.84,5.28,34.33,5.28,55.45c0,17.13-1.64,33.33-4.93,48.58
			c-3.29,15.26-8.86,28.58-16.72,39.96c-7.87,11.39-18.48,20.42-31.86,27.11c-13.38,6.69-30.04,10.03-49.99,10.03
			c-8.45,0-17.6-0.47-27.46-1.41S928.04,485.69,918.19,482.63z M980.5,278.8c-0.94,28.17-1.53,56.45-1.76,84.84
			c-0.24,28.4-0.35,56.8-0.35,85.2c8.68-0.7,15.84-3.87,21.47-9.5s10.09-12.5,13.38-20.59c3.28-8.1,5.63-16.9,7.04-26.4
			s2.11-18.71,2.11-27.64c0-7.51-0.18-16.37-0.53-26.58c-0.35-10.21-1.88-19.89-4.58-29.04c-2.7-9.15-6.87-16.72-12.5-22.71
			C999.16,280.38,991.06,277.86,980.5,278.8z"/>
		<path class="st0" d="M1225.52,487.56c-19.48,0.24-39.25,0.47-59.32,0.7c-20.07,0.24-42.07,0.47-66.01,0.71
			c1.88-2.82,3.05-6.39,3.52-10.74c0.47-4.34,0.7-7.8,0.7-10.39c0-8.92-0.12-18.36-0.35-28.34c-0.24-9.97-0.35-22.71-0.35-38.2
			c0-21.12,0.12-42.01,0.35-62.67c0.23-20.65,0.82-41.66,1.76-63.02c-0.47-4.69-1.47-9.97-2.99-15.84
			c-1.53-5.86-3.58-11.5-6.16-16.9c10.09-1.41,22.29-2.58,36.61-3.52c14.31-0.93,28.52-1.41,42.6-1.41c8.92,0,17.66,0.18,26.23,0.53
			c8.56,0.35,16.49,1.12,23.76,2.29c0,4.46-0.06,9.21-0.18,14.26c-0.12,5.05-0.35,10.09-0.7,15.14c-0.35,5.05-0.76,9.98-1.23,14.79
			c-0.47,4.81-1.06,9.1-1.76,12.85c-11.27-8.92-22-14.67-32.21-17.25c-10.21-2.58-20.83-3.28-31.86-2.11
			c-0.24,4.7-0.41,9.68-0.53,14.96c-0.12,5.28-0.24,10.68-0.35,16.19c-0.12,5.52-0.18,10.86-0.18,16.02c0,5.17,0,9.98,0,14.43
			c4.46-0.23,9.33-0.64,14.61-1.23c5.28-0.58,10.5-1.29,15.67-2.11c5.16-0.82,10.09-1.76,14.79-2.82c4.69-1.06,8.8-2.05,12.32-2.99
			c0.23,9.39,0.12,19.31-0.35,29.75c-0.47,10.45-1.53,20.24-3.17,29.4c-8.22-4.22-16.55-6.98-25-8.27
			c-8.45-1.29-18.19-1.94-29.22-1.94c0,11.04-0.12,22.06-0.35,33.09c-0.24,11.04,0,22.53,0.7,34.5c5.4,0,11.03-0.41,16.9-1.23
			c5.86-0.82,11.67-2.4,17.43-4.75c5.75-2.34,11.27-5.4,16.55-9.15c5.28-3.75,10.15-8.68,14.61-14.79
			c1.88,13.61,2.93,26.29,3.17,38.02C1225.75,467.26,1225.75,477.94,1225.52,487.56z"/>
		<path class="st0" d="M1367.05,492.14c-6.11,0-11.97-0.65-17.6-1.94c-5.63-1.29-11.04-2.76-16.19-4.4
			c-5.17-1.64-10.09-2.99-14.79-4.05c-4.7-1.06-9.15-1.46-13.38-1.23c0-9.86,0.7-21.24,2.11-34.15c1.41-12.91,3.75-28.4,7.04-46.47
			c7.51,19.48,14.96,33.44,22.35,41.89c7.39,8.45,15.43,12.67,24.12,12.67c7.27,0,12.79-1.99,16.55-5.98
			c3.75-3.99,5.63-9.15,5.63-15.49c0-4.69-1-9.09-2.99-13.2c-2-4.1-4.64-7.92-7.92-11.44c-4.22-4.46-8.75-8.63-13.55-12.5
			c-4.81-3.87-9.74-7.62-14.79-11.27c-5.05-3.64-10.03-7.45-14.96-11.44c-4.93-3.99-9.5-8.45-13.73-13.38
			c-5.63-6.8-9.8-13.85-12.5-21.12c-2.7-7.27-4.05-16.07-4.05-26.4c0-10.33,1.7-20.12,5.1-29.4c3.4-9.27,8.45-17.43,15.14-24.47
			c6.69-7.04,14.96-12.67,24.82-16.9s21.12-6.34,33.8-6.34c9.86,0,20.12,1.29,30.8,3.87c10.68,2.58,19.89,6.11,27.64,10.56
			c-0.47,7.75-2.82,17.95-7.04,30.63s-11.39,28.4-21.47,47.18c-2.35-17.83-5.93-30.45-10.74-37.85
			c-4.81-7.39-11.21-11.21-19.19-11.44c-8.92-0.23-15.49,2.99-19.71,9.68c-4.22,6.69-6.11,14.61-5.63,23.76
			c0.47,8.22,3.52,15.49,9.15,21.83s13.14,12.21,22.53,17.6c7.27,4.22,14.2,8.86,20.77,13.91c6.57,5.05,12.38,10.68,17.43,16.9
			c5.04,6.22,9.03,13.2,11.97,20.95c2.93,7.75,4.4,16.32,4.4,25.7c0,11.74-1.82,21.65-5.46,29.75c-3.64,8.1-8.63,14.67-14.96,19.71
			c-6.34,5.05-13.85,8.69-22.53,10.91C1386.53,491.02,1377.14,492.14,1367.05,492.14z"/>
		<path class="st0" d="M1446.26,482.28c1.88-2.58,3.75-6.22,5.63-10.91c1.88-4.69,3.17-9.03,3.87-13.03
			c2.34-13.61,5.1-28.4,8.27-44.36c3.17-15.96,6.51-32.09,10.03-48.41c3.52-16.31,7.1-32.44,10.74-48.41
			c3.64-15.96,7.1-30.86,10.39-44.71c1.17-6.1,1.7-11.73,1.58-16.9c-0.12-5.16-1.82-10.56-5.1-16.19
			c6.57-0.93,13.85-1.64,21.83-2.11c7.98-0.47,16.19-0.7,24.64-0.7c6.34,0,13.2,0.3,20.6,0.88c7.39,0.59,14.84,1.71,22.35,3.34
			c-3.52,3.52-5.87,7.87-7.04,13.03c-1.18,5.17-1.41,9.39-0.7,12.67c5.16,29.57,10.68,60.79,16.55,93.65
			c5.86,32.86,12.55,65.13,20.07,96.81c0.94,4.22,2.58,8.86,4.93,13.91c2.34,5.05,5.63,9.68,9.86,13.91
			c-10.33,1.18-21.48,2.11-33.45,2.82s-23.59,1.06-34.85,1.06c1.41-3.99,1.88-8.45,1.41-13.38c-0.47-4.93-1.18-9.74-2.11-14.43
			l-6.69-32.74c-7.04,0-13.73,0.06-20.07,0.18c-6.34,0.12-13.26,0.3-20.77,0.53c-1.18,5.63-2.53,11.97-4.05,19.01
			c-1.53,7.04-2.29,13.73-2.29,20.07c0,2.59,0.35,5.52,1.06,8.8c0.7,3.29,1.99,6.57,3.87,9.86c-2.35,0.47-5.75,0.83-10.21,1.06
			c-4.46,0.24-9.45,0.3-14.96,0.18c-5.52-0.12-11.39-0.58-17.6-1.41C1457.81,485.51,1451.89,484.16,1446.26,482.28z M1542.72,388.28
			c-0.94-5.86-1.88-12.55-2.82-20.07c-0.94-7.51-1.94-15.31-2.99-23.41c-1.06-8.1-2.06-16.19-2.99-24.29
			c-0.94-8.1-1.88-15.67-2.82-22.71c-2.82,13.85-5.52,28.93-8.1,45.24c-2.59,16.32-5.05,31.39-7.39,45.24
			C1523.82,388.05,1532.86,388.05,1542.72,388.28z"/>
		<path class="st0" d="M1696.92,486.15c-10.33,1.88-20.95,2.87-31.86,2.99c-10.91,0.12-21.77-0.41-32.56-1.58
			c2.58-4.93,4.28-9.8,5.1-14.61c0.82-4.81,1.35-9.21,1.58-13.2c0.23-9.15,0.47-19.3,0.7-30.45c0.23-11.15,0.41-22.82,0.53-35.03
			c0.12-12.2,0.23-24.47,0.35-36.79c0.12-12.32,0.18-24.35,0.18-36.08c0-10.79,0-21,0-30.63c0-9.62-0.12-18.54-0.35-26.76
			c0-8.68-2.46-16.78-7.39-24.29c9.86-0.94,19.65-1.52,29.4-1.76c9.74-0.23,19.65-0.12,29.75,0.35
			c3.75,11.27,7.33,21.71,10.74,31.33c3.4,9.63,6.87,19.13,10.39,28.52c3.52,9.39,7.22,19.07,11.09,29.04
			c3.87,9.98,8.39,20.95,13.55,32.92c0.23-6.8,0.41-13.26,0.53-19.36c0.12-6.1,0.18-12.61,0.18-19.54c0-6.92,0-14.61,0-23.06
			s0-18.54,0-30.28c0-4.93-0.47-9.74-1.41-14.43c-0.94-4.69-2.46-9.03-4.58-13.03c20.65-2.82,41.66-3.17,63.02-1.06
			c-3.99,6.11-6.51,11.79-7.57,17.08c-1.06,5.28-1.58,10.27-1.58,14.96c-0.24,9.15-0.41,18.66-0.53,28.52
			c-0.12,9.86-0.3,20.83-0.53,32.92c-0.24,12.09-0.41,25.76-0.53,41.01c-0.12,15.26-0.18,32.74-0.18,52.46
			c0,9.86,0.41,19.89,1.23,30.1c0.82,10.21,2.17,20.59,4.05,31.16c-6.81,0.94-14.08,1.58-21.83,1.94
			c-7.75,0.35-15.49,0.53-23.24,0.53c-3.99-7.98-8.39-16.95-13.2-26.93c-4.81-9.97-9.8-20.54-14.96-31.68
			c-5.17-11.15-10.33-22.71-15.49-34.68c-5.17-11.97-9.98-23.94-14.43-35.91c-1.41,29.81-1.06,61.14,1.06,94
			c0.47,4.93,1.23,9.86,2.29,14.79C1691.46,474.54,1693.63,480.05,1696.92,486.15z"/>
		<path class="st0" d="M1953.56,301.68c-8.92-8.92-17.2-14.9-24.82-17.96c-7.63-3.05-14.49-4.81-20.59-5.28
			c-0.47,13.15-0.76,26.46-0.88,39.96c-0.12,13.5-0.18,27.52-0.18,42.07c0,14.55,0.12,29.81,0.35,45.77
			c0.23,15.96,0.58,33.09,1.06,51.4c0,1.64,0.18,3.7,0.53,6.16c0.35,2.46,0.82,4.99,1.41,7.57c0.58,2.59,1.35,5.11,2.29,7.57
			c0.94,2.46,2.11,4.64,3.52,6.51c-9.86,1.88-20.95,3.05-33.27,3.52c-12.32,0.47-24-0.12-35.03-1.76c3.05-5.4,4.93-10.62,5.63-15.67
			c0.7-5.04,1.06-9.56,1.06-13.55c0-27.93,0-51.16,0-69.71c0-18.54,0.05-34.33,0.18-47.35c0.12-13.03,0.18-24.23,0.18-33.62
			c0-9.38,0-18.66,0-27.81c-5.87,0.94-12.5,2.99-19.89,6.16c-7.39,3.17-15.2,8.86-23.41,17.07c-0.47-10.56-0.7-21.18-0.7-31.86
			c0-10.68,0.58-21.18,1.76-31.51c23.47-1.17,46.82-1.82,70.06-1.94c23.24-0.12,46.82,0.41,70.76,1.58c0.23,4.22,0.47,9.1,0.7,14.61
			c0.23,5.52,0.35,11.09,0.35,16.72s-0.06,11.15-0.18,16.55C1954.32,292.29,1954.03,297.22,1953.56,301.68z"/>
		<path class="st0" d="M1941.24,482.28c1.88-2.58,3.75-6.22,5.63-10.91c1.88-4.69,3.17-9.03,3.87-13.03
			c2.34-13.61,5.1-28.4,8.27-44.36c3.17-15.96,6.51-32.09,10.03-48.41c3.52-16.31,7.1-32.44,10.74-48.41
			c3.64-15.96,7.1-30.86,10.39-44.71c1.17-6.1,1.7-11.73,1.58-16.9c-0.12-5.16-1.82-10.56-5.1-16.19
			c6.57-0.93,13.85-1.64,21.83-2.11c7.98-0.47,16.19-0.7,24.64-0.7c6.34,0,13.2,0.3,20.6,0.88c7.39,0.59,14.84,1.71,22.35,3.34
			c-3.52,3.52-5.87,7.87-7.04,13.03c-1.18,5.17-1.41,9.39-0.7,12.67c5.16,29.57,10.68,60.79,16.55,93.65
			c5.86,32.86,12.55,65.13,20.07,96.81c0.94,4.22,2.58,8.86,4.93,13.91c2.34,5.05,5.63,9.68,9.86,13.91
			c-10.33,1.18-21.48,2.11-33.45,2.82s-23.59,1.06-34.85,1.06c1.41-3.99,1.88-8.45,1.41-13.38c-0.47-4.93-1.18-9.74-2.11-14.43
			l-6.69-32.74c-7.04,0-13.73,0.06-20.07,0.18c-6.34,0.12-13.26,0.3-20.77,0.53c-1.18,5.63-2.53,11.97-4.05,19.01
			c-1.53,7.04-2.29,13.73-2.29,20.07c0,2.59,0.35,5.52,1.06,8.8c0.7,3.29,1.99,6.57,3.87,9.86c-2.35,0.47-5.75,0.83-10.21,1.06
			c-4.46,0.24-9.45,0.3-14.96,0.18c-5.52-0.12-11.39-0.58-17.6-1.41C1952.8,485.51,1946.87,484.16,1941.24,482.28z M2037.7,388.28
			c-0.94-5.86-1.88-12.55-2.82-20.07c-0.94-7.51-1.94-15.31-2.99-23.41c-1.06-8.1-2.06-16.19-2.99-24.29
			c-0.94-8.1-1.88-15.67-2.82-22.71c-2.82,13.85-5.52,28.93-8.1,45.24c-2.59,16.32-5.05,31.39-7.39,45.24
			C2018.8,388.05,2027.84,388.05,2037.7,388.28z"/>
	</g>
	<g>
		<path class="st0" d="M469.12,199.49c-7.4,0.09-14.92,0.18-22.54,0.27c-7.63,0.09-15.99,0.18-25.08,0.27
			c0.71-1.07,1.16-2.43,1.34-4.08c0.18-1.65,0.27-2.96,0.27-3.95c0-3.39-0.05-6.98-0.13-10.77c-0.09-3.79-0.13-8.63-0.13-14.52
			c0-8.03,0.04-15.96,0.13-23.81c0.09-7.85,0.31-15.83,0.67-23.95c-0.18-1.78-0.56-3.79-1.14-6.02c-0.58-2.23-1.36-4.37-2.34-6.42
			c3.83-0.54,8.47-0.98,13.91-1.34c5.44-0.36,10.84-0.54,16.19-0.54c3.39,0,6.71,0.07,9.97,0.2c3.25,0.13,6.26,0.42,9.03,0.87
			c0,1.7-0.02,3.5-0.07,5.42c-0.05,1.92-0.13,3.83-0.27,5.75c-0.13,1.92-0.29,3.79-0.47,5.62c-0.18,1.83-0.4,3.46-0.67,4.88
			c-4.28-3.39-8.36-5.57-12.24-6.56c-3.88-0.98-7.92-1.25-12.11-0.8c-0.09,1.79-0.16,3.68-0.2,5.69c-0.05,2.01-0.09,4.06-0.13,6.15
			c-0.05,2.1-0.07,4.13-0.07,6.09c0,1.96,0,3.79,0,5.48c1.69-0.09,3.54-0.24,5.55-0.47c2.01-0.22,3.99-0.49,5.95-0.8
			c1.96-0.31,3.83-0.67,5.62-1.07c1.78-0.4,3.34-0.78,4.68-1.14c0.09,3.57,0.04,7.34-0.13,11.3c-0.18,3.97-0.58,7.69-1.2,11.17
			c-3.12-1.6-6.29-2.65-9.5-3.14s-6.91-0.74-11.1-0.74c0,4.19-0.05,8.38-0.13,12.58c-0.09,4.19,0,8.56,0.27,13.11
			c2.05,0,4.19-0.15,6.42-0.47c2.23-0.31,4.44-0.91,6.62-1.81c2.18-0.89,4.28-2.05,6.29-3.48c2.01-1.43,3.86-3.3,5.55-5.62
			c0.71,5.17,1.11,9.99,1.2,14.45C469.21,191.78,469.21,195.84,469.12,199.49z"/>
		<path class="st0" d="M524.1,173.27c0.8,8.74,1.07,17.48,0.8,26.22c-3.12,0-6.91,0.07-11.37,0.2c-4.46,0.13-8.99,0.2-13.58,0.2
			c-4.59,0-8.94-0.09-13.04-0.27c-4.1-0.18-7.36-0.54-9.77-1.07c0.98-2.32,1.58-4.59,1.81-6.82c0.22-2.23,0.33-4.24,0.33-6.02
			c0-12.75,0.13-25.91,0.4-39.46c0.09-4.82,0.18-9.97,0.27-15.45c0.09-5.49,0.13-10.55,0.13-15.18c0-1.42-0.13-2.94-0.4-4.55
			s-1.03-3.39-2.27-5.35c1.43-0.09,3.28-0.29,5.55-0.6c2.27-0.31,4.62-0.54,7.02-0.67c2.41-0.13,4.77-0.11,7.09,0.07
			c2.32,0.18,4.28,0.67,5.89,1.47c-0.89,1.52-1.52,3.17-1.87,4.95c-0.36,1.79-0.54,3.43-0.54,4.95c0,5.62-0.05,11.39-0.13,17.32
			c-0.09,5.93-0.22,11.89-0.4,17.86c-0.18,5.98-0.31,11.64-0.4,16.99c-0.09,5.35-0.13,10.7-0.13,16.05c2.5-0.09,4.79-0.36,6.89-0.8
			c2.09-0.45,4.1-1.09,6.02-1.94c1.92-0.85,3.83-1.92,5.75-3.21C520.06,176.87,522.05,175.24,524.1,173.27z"/>
	</g>
	<g>
		<g>
			<path class="st1" d="M111.95,326.75c0,0-15.74,0.48-30.05-5.72c-14.31-6.2-29.82-12.64-33.15-12.64c-3.2,0-0.27,6.05,2.86,10.5
				c5.72,8.11,15.74,16.22,28.15,24.33c12.86,8.41,37.61,20.49,50.57,24.81c11.45,3.82,17.17,5.25,17.17,5.25l-2.86-46.27
				L111.95,326.75z"/>
			<path class="st1" d="M307.11,329.61c0,0,15.74,0.48,30.05-5.72c14.31-6.2,29.82-12.64,33.15-12.64c3.2,0,0.27,6.05-2.86,10.5
				c-5.72,8.11-15.74,16.22-28.15,24.33c-12.86,8.41-37.61,20.49-50.57,24.81c-11.45,3.82-17.17,5.25-17.17,5.25l2.86-46.27
				L307.11,329.61z"/>
			<g>
				<g>
					<path class="st2" d="M50.25,307.76c-2.75-1.06-3.9,2.65-3.45,4.67c0.74,3.25,3.69,5.91,5.87,8.27c5,5.42,10.35,10.45,16.16,15
						c12.42,9.72,26.34,17.08,40.2,24.48c7.08,3.78,14.47,7.43,22.38,9.09c1.64,0.34,2.35-2.16,0.7-2.52
						c-6.29-1.39-12.43-4.14-18.13-7.09c-6.52-3.38-12.99-6.86-19.44-10.37c-3.08-1.67-6.2-3.27-9.25-4.99
						c-3.14-1.77-6.17-3.78-9.14-5.82c-5.51-3.79-10.71-7.98-15.6-12.55c-2.69-2.51-5.3-5.1-7.77-7.83
						c-1.26-1.4-2.66-2.81-3.57-4.47c-0.4-0.74-0.82-1.68-0.78-2.55c0.03-0.7,0.49-1.98,1.4-1.78
						C50.84,309.53,51.2,308.12,50.25,307.76L50.25,307.76z"/>
				</g>
			</g>
			<g>
				<g>
					<path class="st2" d="M49.88,308.1c1.65,1.35,3.66,2.18,5.58,3.07c2.08,0.95,4.15,1.93,6.25,2.84
						c3.97,1.73,7.93,3.52,11.93,5.19c7.95,3.32,16.1,6.34,24.57,8.01c4.75,0.93,9.56,1.41,14.4,1.3c1.45-0.03,1.46-2.29,0-2.26
						c-17.18,0.35-33.33-6.77-48.87-13.26c-2.26-0.95-4.53-1.88-6.82-2.76c-2.27-0.88-4.54-1.96-6.98-2.26
						C49.87,307.95,49.82,308.06,49.88,308.1L49.88,308.1z"/>
				</g>
			</g>
			<g>
				<g>
					<path class="st2" d="M368.84,312.16c1.76-0.4,1.34,2.66,1.05,3.43c-0.6,1.55-1.74,2.83-2.82,4.05
						c-2.14,2.44-4.39,4.75-6.71,7.02c-4.68,4.57-9.66,8.8-14.95,12.64c-11.31,8.21-24.01,14.29-36.3,20.87
						c-6.9,3.69-13.8,6.97-21.49,8.65c-1.65,0.36-0.95,2.86,0.7,2.52c7.47-1.54,14.19-4.5,20.89-8.07
						c6.99-3.73,14.05-7.36,20.87-11.38c12.63-7.44,24.29-16.09,34.42-26.72c1.42-1.49,2.81-3.01,4.16-4.57
						c1.1-1.27,2.19-2.59,2.83-4.15c0.6-1.45,0.8-3.07-0.01-4.48c-0.64-1.11-1.79-1.84-3.06-1.35
						C367.47,310.99,367.82,312.39,368.84,312.16L368.84,312.16z"/>
				</g>
			</g>
			<g>
				<g>
					<path class="st2" d="M367.77,310.82c-2.12,0.26-4.1,1.13-6.07,1.91c-2.05,0.81-4.11,1.6-6.15,2.46c-4,1.67-8,3.32-12.02,4.94
						c-7.86,3.16-15.85,6.07-24.18,7.7c-4.7,0.92-9.47,1.39-14.26,1.29c-1.45-0.03-1.45,2.23,0,2.26c17.39,0.4,33.5-6.91,49.1-13.71
						c2.4-1.05,4.79-2.1,7.16-3.21c2.2-1.03,4.56-1.92,6.47-3.48C367.88,310.92,367.84,310.81,367.77,310.82L367.77,310.82z"/>
				</g>
			</g>
			<g>
				<g>
					<path class="st2" d="M49.08,308.41c0.13,0.31,0.34,0.36,0.65,0.44c0.58,0.16,1.14,0.33,1.71,0.56c1.24,0.49,2.44,1.09,3.63,1.7
						c1.16,0.59,2.3,1.21,3.46,1.8c1.03,0.53,2.32,1.48,3.53,1.35c0.2-0.02,0.33-0.21,0.23-0.4c-0.58-1.07-2.06-1.57-3.09-2.1
						c-1.19-0.62-2.38-1.24-3.58-1.83c-1.12-0.55-2.25-1.07-3.42-1.51c-0.58-0.22-1.19-0.48-1.81-0.53
						c-0.25-0.02-0.45-0.01-0.68,0.1c-0.21,0.1-0.38,0.31-0.6,0.38C49.09,308.37,49.07,308.39,49.08,308.41L49.08,308.41z"/>
				</g>
			</g>
			<g>
				<g>
					<path class="st2" d="M50.08,309.4c0.85,0.4,1.78,0.58,2.66,0.89c0.98,0.34,1.94,0.72,2.89,1.13c1.88,0.82,3.72,1.75,5.56,2.66
						c3.38,1.69,7,3.63,10.87,3.66c0.26,0,0.29-0.35,0.06-0.44c-3.82-1.37-7.55-2.78-11.19-4.57c-1.73-0.85-3.47-1.7-5.25-2.46
						c-1.64-0.69-3.57-1.62-5.38-1.67C49.89,308.6,49.69,309.22,50.08,309.4L50.08,309.4z"/>
				</g>
			</g>
			<g>
				<g>
					<path class="st2" d="M365.06,312.64c0.11-0.04,0.24,0,0.36-0.04c0.12-0.04,0.23-0.1,0.34-0.15c0.22-0.09,0.46-0.14,0.69-0.2
						c0.48-0.12,0.97-0.22,1.46-0.23c0.84-0.01,2.01,0.14,2.6,0.8c0.45,0.5,1.15-0.04,1.04-0.61c-0.13-0.67-1.08-1-1.64-1.18
						c-0.61-0.2-1.27-0.28-1.91-0.22c-0.65,0.06-1.27,0.2-1.85,0.51c-0.27,0.15-0.5,0.34-0.73,0.54c-0.11,0.09-0.21,0.18-0.29,0.29
						c-0.1,0.13-0.08,0.25-0.15,0.38C364.96,312.59,365,312.66,365.06,312.64L365.06,312.64z"/>
				</g>
			</g>
			<g>
				<g>
					<path class="st2" d="M365.88,311.91c0.16,0.22,0.46,0.21,0.7,0.18c0.31-0.03,0.62-0.11,0.93-0.17
						c0.54-0.11,1.12-0.26,1.67-0.13c0.38,0.09,0.74,0.34,0.95,0.63c0.14,0.19,0.24,0.4,0.35,0.61c0.05,0.11,0.11,0.22,0.19,0.32
						c0.04,0.06,0.05,0.07,0.02,0.02c0.01,0.03,0.03,0.07,0.04,0.1c0.04,0.07,0.11,0.13,0.18,0.17c0.15,0.09,0.31,0.04,0.43-0.06
						c0.12-0.1,0.16-0.26,0.2-0.4c0.05-0.18,0.04-0.38,0.01-0.56c-0.06-0.31-0.2-0.59-0.39-0.84c-0.39-0.53-0.92-0.94-1.56-1.11
						c-0.71-0.19-1.53-0.1-2.21,0.16C367.17,310.92,365.55,311.46,365.88,311.91L365.88,311.91z"/>
				</g>
			</g>
			<g>
				<g>
					<path class="st2" d="M368.8,311.66c-0.33-0.34-0.85-0.19-1.27-0.13c-0.52,0.07-1.04,0.15-1.55,0.27
						c-0.49,0.11-0.99,0.25-1.47,0.42c-0.45,0.16-0.95,0.34-1.33,0.64c-0.11,0.09-0.02,0.29,0.12,0.28c0.48-0.03,0.97-0.2,1.43-0.32
						c0.48-0.12,0.95-0.25,1.43-0.35c0.48-0.11,0.96-0.2,1.45-0.28c0.42-0.07,0.94-0.04,1.2-0.42
						C368.84,311.73,368.83,311.68,368.8,311.66L368.8,311.66z"/>
				</g>
			</g>
			<g>
				<g>
					<path class="st2" d="M367.67,312.01c0.08,0.02,0.16,0.04,0.24,0.06c0.08,0.03,0.14,0.07,0.21,0.09
						c0.16,0.04,0.32,0.08,0.48,0.12c0.3,0.06,0.6,0.11,0.88,0.26c0.28,0.14,0.49,0.35,0.64,0.62c0.08,0.15,0.13,0.32,0.19,0.48
						c0.03,0.1,0.09,0.18,0.13,0.27c0.04,0.08,0.05,0.17,0.12,0.24c0.06,0.06,0.17,0.05,0.21-0.03c0.05-0.1,0.03-0.2,0.04-0.31
						c0.01-0.11,0.02-0.21,0-0.31c-0.04-0.21-0.12-0.42-0.22-0.61c-0.18-0.33-0.47-0.6-0.81-0.77c-0.33-0.17-0.7-0.26-1.07-0.3
						c-0.19-0.02-0.38,0-0.57,0.03c-0.08,0.01-0.13,0.05-0.2,0.07c-0.09,0.03-0.19,0.04-0.28,0.06
						C367.65,311.99,367.65,312.01,367.67,312.01L367.67,312.01z"/>
				</g>
			</g>
			<path class="st2" d="M289.42,278.09l5.25,26.71c0,0,3.34-6.2,4.29-8.59s0.95-4.77,3.82-5.25c4.34-0.72,7.16,3.82,6.2,7.16
				s-4.29,13.83-3.82,20.51c0.48,6.68,0.95,10.02-0.95,14.79c-1.91,4.77-5.72,10.5-8.11,10.5s-6.68,3.82-8.11,8.59
				c-1.43,4.77-6.2,10.5-14.31,14.79c-8.11,4.29-17.65,6.2-36.73,6.68s-54.86-0.48-63.92-0.95s-29.58-1.91-34.82-6.68
				c-5.25-4.77-11.93-19.08-11.93-19.08l-3.82-1.91c0,0-4.77-0.48-6.68-7.16c-1.91-6.68-1.43-25.76-3.34-30.53
				c-1.91-4.77-4.29-10.97-2.39-12.88c1.91-1.91,4.29-4.29,5.72-2.39c1.43,1.91,4.77,6.2,6.68,9.06c1.91,2.86,3.82,3.34,3.82,3.34
				l7.63-26.71c0,0,27.67,8.59,41.03,10.97s27.19,4.29,44.84,3.34c17.65-0.95,31.49-3.34,46.27-7.16
				C280.83,281.43,289.42,278.09,289.42,278.09z"/>
			<path class="st3" d="M269.38,301.94c0,7.16-2.86,10.5-7.63,11.45c-4.77,0.95-10.02-1.43-12.88-1.91
				c-2.86-0.48-9.06-1.43-13.83-0.95c-4.77,0.48-9.06,2.86-11.45,1.91c-2.39-0.95-3.82-2.64-3.82-4.77c0-1.91-0.48-5.72,1.43-6.2
				c1.91-0.48,11.45,0.48,16.7-0.95c5.25-1.43,12.88-5.72,16.22-7.16c3.34-1.43,6.68-1.91,9.06-0.48c2.39,1.43,4.77,4.29,5.25,5.72
				S269.38,301.94,269.38,301.94z"/>
			<path class="st3" d="M147.42,297.48c-0.74,7.12,1.77,10.73,6.42,12.17s10.11-0.39,13.01-0.57c2.9-0.18,9.16-0.49,13.86,0.47
				c4.7,0.96,8.72,3.78,11.19,3.08s4.07-2.23,4.29-4.35c0.2-1.9,1.06-5.65-0.79-6.32c-1.85-0.67-11.44-0.7-16.51-2.67
				c-5.07-1.96-12.22-7.02-15.4-8.79s-6.45-2.58-8.97-1.41c-2.52,1.18-5.19,3.78-5.81,5.15
				C148.09,295.63,147.42,297.48,147.42,297.48z"/>
			<line class="st4" x1="285.84" y1="367.06" x2="224.3" y2="496.34"/>
			<line class="st4" x1="132.23" y1="366.58" x2="189.95" y2="496.34"/>
			<path class="st4" d="M190.19,496.81l5.85,1.48c7.27,1.84,14.89,1.84,22.16,0l5.85-1.48"/>
			<path class="st5" d="M129.84,78.92c0,0,36.15-9.7,82.4-9.7c46.88,0,92.2,13.04,92.2,13.04"/>
			<path class="st5" d="M129.84,77.96l6.68,32.92c8.56,48.82,9.89,57.56-2.86,96.84l-9.06,24.81"/>
			<path class="st5" d="M304.44,81.3l-10.6,33.39c-11.82,46.75-17.55,66.31-3.24,107.81l6.2,17.65"/>
			<g>
				<g>
					<path class="st6" d="M190.19,301.46c3.82-0.24,6.44,2.43,6.44,5.72s-2.67,5.96-5.96,5.96c-2.16,0-3.34-2.15-7.16-2.62"/>
					<path class="st7" d="M163.95,310.05c-3.34,0.95-3.58,0.95-5.49,0.95c-6.19,0-11.21-5.02-11.21-11.21
						c0-6.19,5.02-11.21,11.21-11.21c3.74,0,7.06,1.83,9.09,4.65"/>
					<path class="st7" d="M167.09,292.64c0.67,0.72,4.97,5.49,12.12,6.92c7.16,1.43,14.31,2.39,14.31,2.39"/>
					<path class="st6" d="M163.42,310.11c4.89-0.96,13.92-2.01,23.05,1.31"/>
					<path class="st6" d="M159.7,310.93c0.14,0.02,1.5-0.39,3.72-0.83"/>
				</g>
				<g>
					<g>
						<path d="M139.59,299.2c0.65-0.92,1.38-1.79,2.05-2.71c0.75-1.04,1.61-2.02,2.53-2.92c1.63-1.61,3.6-2.94,5.76-3.72
							c2.57-0.92,5.42-1.19,8.08-0.5c2.83,0.74,5.18,2.57,7.53,4.24c4.48,3.19,9.28,6.14,14.63,7.6c3.78,1.03,8.25,1.66,12.17,1.24
							c4.61-0.49,7.95-3.06,9.34-7.54c0.49-1.57-1.98-2.24-2.46-0.68c-0.59,1.91-1.62,3.62-3.4,4.63c-1.48,0.84-3.22,1.1-4.91,1.15
							c-4.38,0.12-9.07-0.65-13.14-2.25c-5.3-2.07-9.57-5.64-14.33-8.62c-4.63-2.9-10.08-3.44-15.12-1.23
							c-2.39,1.05-4.54,2.63-6.22,4.64c-0.8,0.96-1.44,2.01-1.94,3.16c-0.54,1.22-0.64,2.18-0.64,3.5
							C139.52,299.23,139.57,299.23,139.59,299.2L139.59,299.2z"/>
					</g>
				</g>
				<g>
					<g>
						<path d="M193.76,301.29c2.13,1.29,2.95,3.9,2.56,6.29c-0.2,1.24-0.73,2.38-1.7,3.19c-0.4,0.34-0.87,0.63-1.35,0.83
							c-0.62,0.25-1.24,0.26-1.88,0.39c-1.17,0.25-1.26,2.28,0,2.46c1.73,0.24,3.57-0.66,4.78-1.88c1.24-1.25,2.04-2.89,2.28-4.62
							c0.25-1.76,0-3.6-0.77-5.2c-0.68-1.42-1.88-2.77-3.56-2.79C193.41,299.95,193.17,300.93,193.76,301.29L193.76,301.29z"/>
					</g>
				</g>
			</g>
			<g>
				<g>
					<path class="st6" d="M226.64,301c-3.76-0.68-6.68,1.66-7.07,4.93c-0.39,3.27,1.95,6.23,5.22,6.62
						c2.14,0.25,3.57-1.74,7.41-1.77"/>
					<path class="st7" d="M251.7,312.6c3.2,1.34,3.45,1.37,5.34,1.59c6.15,0.72,11.72-3.67,12.44-9.82
						c0.72-6.15-3.67-11.72-9.82-12.44c-3.72-0.44-7.22,1-9.57,3.56"/>
					<path class="st7" d="M250.61,294.94c-0.75,0.63-5.57,4.87-12.85,5.45s-14.49,0.7-14.49,0.7"/>
					<path class="st6" d="M252.22,312.72c-4.75-1.52-13.59-3.62-23.04-1.39"/>
					<path class="st6" d="M255.82,313.97c-0.14,0.01-1.45-0.57-3.6-1.26"/>
				</g>
				<g>
					<g>
						<path d="M277.23,304.66c0.13-1.16,0.21-2-0.11-3.13c-0.32-1.12-0.73-2.19-1.31-3.19c-1.15-1.99-2.78-3.67-4.62-5.02
							c-4.21-3.08-9.8-4.07-14.72-2.22c-2.7,1.02-5.15,2.57-7.71,3.89c-2.6,1.34-5.28,2.54-8.09,3.4c-4.34,1.33-8.98,1.61-13.49,1.2
							c-1.94-0.18-3.95-0.6-5.59-1.69c-1.85-1.22-2.71-3.19-3.1-5.3c-0.3-1.61-2.76-0.93-2.46,0.68c0.73,3.92,3.17,6.83,6.97,8.07
							c3.49,1.14,7.48,1.04,11.1,0.82c5.71-0.34,11.09-2.5,16.12-5.11c2.55-1.32,5-2.96,7.75-3.84c2.8-0.89,5.75-0.69,8.5,0.31
							c2.51,0.91,4.68,2.57,6.42,4.58c0.87,1,1.64,2.13,2.32,3.27c0.31,0.51,0.52,1.06,0.8,1.58c0.33,0.61,0.81,1.12,1.14,1.73
							C277.18,304.72,277.23,304.7,277.23,304.66L277.23,304.66z"/>
					</g>
				</g>
				<g>
					<g>
						<path d="M222.81,299.05c-1.67-0.15-2.97,1.12-3.81,2.43c-0.94,1.47-1.4,3.34-1.33,5.08c0.07,1.75,0.68,3.44,1.77,4.82
							c0.97,1.23,2.67,2.44,4.3,2.41c1.47-0.03,1.69-2.04,0.34-2.5c-0.54-0.19-1.09-0.25-1.6-0.53c-0.49-0.26-0.9-0.59-1.29-0.99
							c-0.87-0.89-1.29-2.08-1.34-3.31c-0.11-2.49,0.99-5.01,3.33-6.06C223.89,300.06,223.44,299.1,222.81,299.05L222.81,299.05z"/>
					</g>
				</g>
			</g>
			<path class="st2" d="M328.5,236.76c6.07,10.97,2.34,18.28-6.24,25.71c-14.25,12.33-63.68,29.38-108.64,30.36
				c-50.19,1.09-106.41-19.53-122.74-37.37c-5.04-5.51-6.63-14.33-0.97-22.18c6.21-8.61,13.38-9.94,23.69-5.34
				c19.15,8.55,51,33.43,98.31,30.67c42.65-2.49,75.63-13.16,93.25-23.27C320.03,226.81,324.42,229.38,328.5,236.76z"/>
			<g>
				<g>
					<path d="M143.81,312.51c0.79,1.78,2.57,2.88,3.99,4.14c1.58,1.4,3.08,2.87,4.68,4.25c2.69,2.31,5.76,4.04,9.15,5.09
						c6.58,2.04,13.97,1.44,20.08-1.76c2.04-1.07,3.82-2.54,5.75-3.78c0.95-0.61,1.93-1.18,3.01-1.54c1.23-0.41,2.34-0.4,3.62-0.38
						c1.47,0.02,1.67-2.06,0.34-2.49c-3.86-1.26-7.84,1.67-10.77,3.78c-2.92,2.1-6.03,3.61-9.58,4.3
						c-6.75,1.31-14.1-0.37-19.41-4.78c-1.74-1.44-3.35-3.05-5.13-4.44c-1.59-1.25-3.4-2.84-5.54-2.73
						C143.83,312.18,143.75,312.35,143.81,312.51L143.81,312.51z"/>
				</g>
			</g>
			<g>
				<g>
					<path d="M273.77,312.65c-1.91-0.09-3.5,1.17-4.94,2.27c-1.58,1.21-3.03,2.55-4.52,3.86c-2.72,2.4-5.72,4.25-9.22,5.27
						c-6.6,1.92-13.92,1.01-19.67-2.83c-3.37-2.26-7.63-6.15-12.09-4.7c-1.32,0.43-1.15,2.52,0.34,2.49c2.2-0.04,3.93,0.3,5.85,1.43
						c1.82,1.07,3.45,2.43,5.24,3.53c2.94,1.8,6.27,2.93,9.68,3.4c6.83,0.95,14.02-0.71,19.52-4.93c1.89-1.45,3.58-3.14,5.35-4.73
						c1.59-1.42,3.76-2.73,4.65-4.73C274.03,312.83,273.95,312.66,273.77,312.65L273.77,312.65z"/>
				</g>
			</g>
			<path d="M133.18,323.64c0,0,1.43,5.25,1.43,12.4s-1.91,8.59,0,10.5c1.91,1.91,8.59,6.2,12.88,11.45
				c4.29,5.25,5.72,7.63,7.16,9.06c1.51,1.51,4.77,4.29,10.97,0.95c6.2-3.34,14.79-11.45,13.83-10.5c-0.95,0.95,1.91-1.91,3.82-2.86
				c1.28-0.64,1.43-1.43,1.43-1.43c0.04-0.02-1-0.14-5.72,1.43c-4.29,1.43-5.25,1.91-9.54,4.77c-3.1,2.07-5.25,4.77-9.54,4.77
				c-3.34,0-2.86-0.48-4.77-2.39s-8.59-9.54-11.93-11.93c-3.34-2.39-5.72-5.25-5.72-5.25s-0.48-10.02-1.43-14.79
				C135.09,325.08,133.18,323.64,133.18,323.64z"/>
			<path d="M282.02,326.03c0,0-1.43,5.25-1.43,12.4c0,7.16,1.91,8.59,0,10.5c-1.91,1.91-8.59,6.2-12.88,11.45
				c-4.29,5.25-5.72,7.63-7.16,9.06c-1.51,1.51-4.77,4.29-10.97,0.95c-6.2-3.34-14.79-11.45-13.83-10.5
				c0.95,0.95-1.91-1.91-3.82-2.86c-1.28-0.64-1.43-1.43-1.43-1.43c-0.04-0.02,1-0.14,5.72,1.43c4.29,1.43,5.25,1.91,9.54,4.77
				c3.1,2.07,5.25,4.77,9.54,4.77c3.34,0,2.86-0.48,4.77-2.39s8.59-9.54,11.93-11.93c3.34-2.39,5.72-5.25,5.72-5.25
				s0.48-10.02,1.43-14.79C280.11,327.46,282.02,326.03,282.02,326.03z"/>
			<path class="st8" d="M132.3,366.56c-6.74-12.4-9.61-25.9-9.61-41.01c0-16.06-1.43-35.3,5.25-49.61"/>
			<path class="st8" d="M284.88,368.96c6.74-12.4,9.96-25.92,9.96-41.03c0-16.06,1.43-35.3-5.25-49.61"/>
			<g>
				<g>
					<path d="M200.31,310.92c0.64-0.14,1.06-1.16,1.45-1.64c0.56-0.7,1.21-1.34,1.95-1.85c1.62-1.1,3.67-1.91,5.65-1.91
						c2.07,0,3.69,1.24,5.13,2.6c0.69,0.66,1.43,1.34,1.87,2.2c0.36,0.71,0.85,1.89,1.89,1.52c0.58-0.21,0.84-0.61,0.91-1.2
						c0.15-1.26-0.81-2.48-1.6-3.37c-0.78-0.89-1.69-1.69-2.63-2.41c-2.16-1.66-4.59-2.34-7.29-1.87c-2.31,0.4-4.74,1.53-6.45,3.15
						c-0.79,0.74-1.5,1.72-1.69,2.8C199.4,309.51,199.3,311.14,200.31,310.92L200.31,310.92z"/>
				</g>
			</g>
			<g>
				<g>
					<path d="M195.74,300.71c0.02,0.03,0.03,0.06,0.05,0.1c-0.01-0.08-0.02-0.16-0.03-0.24c-0.06,0.15,0.03,0.31,0.08,0.45
						c0.06,0.17,0.12,0.33,0.2,0.49c0.02,0.03,0.03,0.07,0.05,0.1c0,0.01,0.05,0.11,0.02,0.05c-0.02-0.06,0.05,0.13,0.06,0.15
						c0.02,0.03,0.03,0.07,0.05,0.1c0.07,0.14,0.14,0.28,0.2,0.42c-0.02-0.06-0.02-0.05,0,0c0.01,0.03,0.03,0.07,0.04,0.1
						c0.03,0.07,0.05,0.14,0.07,0.21c0.05,0.14,0.08,0.28,0.13,0.42c0.02,0.07,0.04,0.14,0.06,0.21c0.02,0.05,0.04,0.1,0.06,0.15
						c0.02,0.06,0.03,0.06,0.01,0.02c-0.03-0.07,0.02,0.04,0.02,0.05c0.03,0.07,0.05,0.14,0.08,0.21c0.03,0.08,0.06,0.15,0.11,0.21
						c0.14,0.18-0.06-0.16,0.01,0.01c0.08,0.19,0.22,0.34,0.44,0.34c0.19,0,0.4-0.14,0.44-0.34c0-0.01,0.02-0.14,0.01-0.08
						c-0.02,0.04-0.01,0.02,0.02-0.05c0.02-0.04,0.04-0.09,0.04-0.14c0.01-0.1,0.02-0.19,0.02-0.29c0.01-0.21-0.01-0.4-0.05-0.6
						c-0.08-0.36-0.23-0.7-0.39-1.03c-0.16-0.32-0.34-0.61-0.59-0.87c-0.13-0.14-0.28-0.25-0.43-0.35c-0.16-0.1-0.35-0.23-0.55-0.17
						c0.08,0.01,0.16,0.02,0.24,0.03c-0.03-0.02-0.06-0.03-0.09-0.05C195.86,300.2,195.62,300.47,195.74,300.71L195.74,300.71z"/>
				</g>
			</g>
			<g>
				<g>
					<path d="M221.3,298.44c-2.15,0.75-3.44,4.07-3.8,6.11c-0.51,2.88-0.32,5.78,0.09,8.66c0.45,3.13,1.1,6.24,1.97,9.28
						c0.4,1.4,0.87,2.78,1.38,4.14c0.58,1.53,1.08,3.12,2.36,4.21c0.48,0.41,1.23,0.14,1.25-0.52c0.06-1.52-0.58-2.78-1.1-4.17
						c-0.49-1.3-0.94-2.62-1.34-3.96c-0.81-2.7-1.37-5.44-1.91-8.2c-0.52-2.65-0.87-5.32-0.71-8.02c0.08-1.26,0.27-2.55,0.55-3.79
						c0.29-1.27,1.08-2.41,1.31-3.68C221.36,298.46,221.33,298.43,221.3,298.44L221.3,298.44z"/>
				</g>
			</g>
			<g>
				<g>
					<path d="M196.25,299.02c0.28,1.21,0.88,2.36,1.26,3.55c0.41,1.28,0.89,2.53,1.24,3.84c0.69,2.63,0.82,5.42,0.47,8.12
						c-0.34,2.63-1.1,5.22-2.04,7.7c-0.5,1.34-1.07,2.65-1.65,3.94c-0.25,0.56-0.54,1.11-0.77,1.68c-0.3,0.75-0.18,1.17-0.24,1.93
						c-0.05,0.71,0.89,1.01,1.36,0.56c0.6-0.58,0.98-0.79,1.36-1.57c0.31-0.62,0.58-1.26,0.86-1.9c0.58-1.3,1.13-2.61,1.63-3.95
						c1.04-2.79,1.82-5.66,2.08-8.63c0.25-2.87-0.04-5.74-1.07-8.44c-0.49-1.27-1.07-2.51-1.81-3.64c-0.72-1.1-1.52-2.4-2.44-3.33
						C196.38,298.79,196.22,298.89,196.25,299.02L196.25,299.02z"/>
				</g>
			</g>
			<g>
				<g>
					<path d="M123.07,304.93c0.04-2.91-1.06-5.79-2.4-8.34c-1.07-2.05-2.57-4.54-4.94-5.25c-2.31-0.69-4.57,0.66-5.81,2.58
						c-1.51,2.35-1.19,5.28-0.69,7.88c1.27,6.64,2.28,13.22,2.61,19.98c0.29,5.91,0.45,11.97,2.99,17.43
						c1.16,2.5,3.03,5.4,5.54,6.73c2.11,1.12,5.4-0.08,4.66-2.89c-0.34-1.28-2.32-0.74-1.98,0.55c0.18,0.68-0.72,0.86-1.17,0.76
						c-0.53-0.12-1-0.49-1.4-0.83c-0.88-0.74-1.66-1.65-2.31-2.6c-1.2-1.73-2.05-3.66-2.65-5.67c-1.4-4.67-1.41-9.58-1.67-14.41
						c-0.27-4.98-0.84-9.94-1.71-14.85c-0.45-2.52-1.26-5.11-1.28-7.69c-0.02-2.01,0.82-4.5,3.02-5.05
						c2.48-0.61,4.13,2.56,5.11,4.31c1.34,2.38,2.06,4.96,3.02,7.5C122.22,305.62,123.06,305.57,123.07,304.93L123.07,304.93z"/>
				</g>
			</g>
			<g>
				<g>
					<path d="M113.25,297.54c2.49,4.22,4.95,8.55,6.47,13.23c0.74,2.28,1.3,4.62,1.63,7c0.17,1.21,0.27,2.43,0.32,3.64
						c0.03,0.62,0.02,1.23,0.07,1.85c0.05,0.66,0.29,1.12,0.45,1.75c0.11,0.41,0.67,0.37,0.79,0c0.22-0.64,0.48-1.07,0.54-1.75
						c0.05-0.62,0.02-1.23,0-1.85c-0.05-1.25-0.17-2.49-0.34-3.72c-0.35-2.58-0.92-5.14-1.76-7.6c-0.8-2.33-1.82-4.62-3.05-6.76
						c-1.34-2.33-2.88-4.19-4.88-5.96C113.35,297.26,113.16,297.4,113.25,297.54L113.25,297.54z"/>
				</g>
			</g>
			<g>
				<g>
					<path d="M117.43,303.82c-1.41,3.02-1.91,6.34-2.21,9.66c-0.28,3.08-0.2,6.19,0.41,9.23c0.57,2.82,1.65,5.56,3.34,7.9
						c0.82,1.13,1.78,2.18,2.51,3.37c0.34,0.55,0.65,1.13,0.79,1.76c0.15,0.65,0.09,1.24,0.37,1.86c0.17,0.36,0.79,0.45,1.04,0.13
						c1.52-1.88-0.66-4.81-1.83-6.31c-1.89-2.43-3.46-4.75-4.32-7.74c-0.86-3-1.03-6.14-0.84-9.23c0.21-3.54,1.1-7.02,0.93-10.57
						C117.64,303.77,117.48,303.71,117.43,303.82L117.43,303.82z"/>
				</g>
			</g>
			<g>
				<g>
					<path d="M120.18,312.52c-0.72,0.56-1.17,1.56-1.53,2.37c-0.38,0.88-0.69,1.79-0.87,2.74c-0.18,0.92-0.27,1.86-0.27,2.79
						c0.01,0.81,0.01,2.15,0.73,2.7c0.2,0.15,0.48,0.16,0.63-0.08c0.41-0.7,0.18-1.77,0.16-2.54c-0.01-0.86,0.06-1.72,0.22-2.56
						c0.17-0.85,0.41-1.69,0.73-2.5c0.33-0.81,0.86-1.57,1.1-2.41C121.25,312.47,120.57,312.21,120.18,312.52L120.18,312.52z"/>
				</g>
			</g>
			<g>
				<g>
					<path d="M296.58,303.65c0.85-2.26,1.49-4.57,2.6-6.73c0.89-1.73,2.08-4.2,4-4.97c2-0.8,3.83,1.15,4.32,2.94
						c0.69,2.52-0.21,5.27-0.7,7.75c-0.95,4.9-1.6,9.86-1.95,14.84c-0.34,4.93-0.23,9.96-1.38,14.8c-0.55,2.3-1.37,4.54-2.63,6.56
						c-0.65,1.04-1.42,2-2.31,2.86c-0.41,0.39-0.85,0.8-1.36,1.05c-0.44,0.21-1.91,0.44-1.65-0.57c0.34-1.28-1.64-1.83-1.98-0.55
						c-0.64,2.43,1.98,3.91,4.06,3.16c2.26-0.81,4.03-3.27,5.21-5.25c3.02-5.06,3.52-11.07,3.8-16.83c0.33-6.73,0.94-13.39,2.25-20
						c0.56-2.8,1.44-5.88,0.5-8.7c-0.71-2.12-2.57-4.07-4.89-4.26c-2.93-0.23-4.85,2.39-6.15,4.65c-1.56,2.72-2.86,5.93-2.82,9.11
						C295.54,304.14,296.37,304.2,296.58,303.65L296.58,303.65z"/>
				</g>
			</g>
			<g>
				<g>
					<path d="M305.13,295.94c-1.95,1.73-3.45,3.52-4.78,5.79c-1.28,2.18-2.33,4.54-3.15,6.93c-0.82,2.4-1.39,4.89-1.74,7.4
						c-0.17,1.24-0.29,2.48-0.36,3.72c-0.03,0.68-0.07,1.37-0.01,2.06c0.06,0.68,0.32,1.12,0.54,1.75c0.13,0.37,0.69,0.42,0.79,0
						c0.14-0.54,0.36-0.99,0.43-1.55c0.07-0.61,0.05-1.23,0.07-1.85c0.04-1.19,0.14-2.38,0.29-3.56c0.32-2.48,0.9-4.91,1.67-7.29
						c1.52-4.68,3.97-9.01,6.47-13.23C305.44,295.97,305.24,295.83,305.13,295.94L305.13,295.94z"/>
				</g>
			</g>
			<g>
				<g>
					<path d="M300.95,302.44c-0.17,3.46,0.69,6.86,0.92,10.32c0.21,3.18,0.05,6.4-0.82,9.48c-0.84,2.95-2.38,5.26-4.25,7.65
						c-1.18,1.51-3.44,4.48-1.9,6.4c0.25,0.31,0.88,0.23,1.04-0.13c0.25-0.55,0.23-1.04,0.33-1.63c0.12-0.72,0.46-1.37,0.83-1.98
						c0.73-1.2,1.69-2.24,2.51-3.37c1.7-2.33,2.77-5.08,3.34-7.9c0.61-3.04,0.69-6.14,0.41-9.23c-0.29-3.31-0.8-6.64-2.21-9.66
						C301.11,302.28,300.96,302.34,300.95,302.44L300.95,302.44z"/>
				</g>
			</g>
			<g>
				<g>
					<path d="M297.51,311.61c0.24,0.84,0.77,1.6,1.1,2.41c0.32,0.8,0.56,1.65,0.73,2.5c0.17,0.84,0.24,1.7,0.22,2.56
						c-0.01,0.77-0.25,1.84,0.16,2.54c0.14,0.24,0.43,0.23,0.63,0.08c0.69-0.54,0.72-1.83,0.73-2.62c0.01-0.96-0.08-1.93-0.27-2.88
						c-0.18-0.92-0.47-1.8-0.84-2.66c-0.36-0.84-0.82-1.88-1.56-2.45C298.02,310.78,297.35,311.04,297.51,311.61L297.51,311.61z"/>
				</g>
			</g>
			<g>
				<g>
					<path d="M122.26,333.47c0.01,0.53,0.15,1.05,0.11,1.59c-0.04,0.55-0.05,1.04,0.01,1.6c0.13,1.07,0.24,2.14,0.31,3.21
						c0.07,1,0.13,2.01,0.08,3.02c-0.04,0.89-0.32,1.58-0.68,2.38c-0.15,0.34,0.16,0.7,0.52,0.52c1.68-0.87,1.27-3.8,1.19-5.33
						c-0.06-1.16-0.18-2.32-0.34-3.47c-0.08-0.57-0.16-1.13-0.38-1.67c-0.14-0.33-0.3-0.63-0.41-0.97c-0.09-0.3-0.15-0.59-0.27-0.88
						C122.38,333.37,122.26,333.37,122.26,333.47L122.26,333.47z"/>
				</g>
			</g>
			<g>
				<g>
					<path d="M213.01,327.26c0.82,3.92,2.34,7.56,3.83,11.27c1.47,3.66,2.86,7.35,4.41,10.97c0.46,1.08,2.32,0.31,1.91-0.81
						c-1.37-3.69-2.97-7.31-4.52-10.92c-1.58-3.68-3.14-7.31-5.44-10.59C213.14,327.08,212.99,327.14,213.01,327.26L213.01,327.26z"
						/>
				</g>
			</g>
			<g>
				<g>
					<path d="M204.77,327.48c-2.09,2.92-3.76,5.98-5.16,9.3c-0.68,1.61-1.35,3.23-1.97,4.86c-0.63,1.66-1.46,3.43-1.8,5.17
						c-0.24,1.21,1.51,2.15,2.12,0.9c0.75-1.54,1.18-3.29,1.75-4.9c0.61-1.72,1.22-3.43,1.86-5.14c1.27-3.35,2.39-6.68,3.29-10.14
						C204.89,327.46,204.8,327.43,204.77,327.48L204.77,327.48z"/>
				</g>
			</g>
			<path class="st9" d="M185.66,348.93c0.72-0.72,5.72-10.97,5.72-10.97l-0.48-1.91c0,0-8.36,12.76-7.16,14.31
				c1.67,2.15,3.75,3.34,6.44,5.49c2.39,1.91,3.54,3.54,6.44,6.44c3.58,3.58,4.43,6.8,8.35,6.44c5.25-0.48,7.2,1.71,10.97-1.43
				c2.86-2.39,6.8-8.23,9.06-10.5c1.91-1.91,7.39-5.49,7.39-5.49L225.73,337c0,0-0.48,0.95-0.72,1.19s3.58,7.87,4.05,9.3
				c0.48,1.43,0.95,3.34,0.95,3.34s-5.72,2.86-7.63,6.2c-1.91,3.34-4.05,5.96-6.44,7.87c-2.39,1.91-2.09,1.64-6.89,1.65
				c-4.8,0.02-5.76-0.46-9.09-3.8c-3.34-3.34-4.77-5.25-8.11-7.63c-3.34-2.39-6.2-5.72-6.2-5.72"/>
			<path d="M143.92,281.43c0,0-6.2,1.43-11.45,20.51c-5.25,19.08-5.72,23.85-3.34,37.69c2.39,13.83,0.48,12.88,10.5,20.04
				c10.02,7.16,17.89,11.69,27.43,9.78s15.74-5.25,19.56-7.16s6.68-3.34,6.68-3.34s9.06,10.5,14.79,10.02
				c5.72-0.48,4.29,0,9.06-4.29c4.77-4.29,6.68-9.54,11.93-4.29c5.25,5.25,13.36,8.59,21.47,9.54s14.31-0.95,21.47-6.68
				c7.16-5.72,9.06-5.25,12.88-14.31c3.82-9.06,5.25-21.47,5.25-31.49s-4.29-20.04-8.11-26.24c-3.82-6.2-5.01-9.3-5.01-9.3
				s2.68-0.58,7.63-2.39c5.25-1.91,5.25-2.86,5.25-2.86s3.82,10.5,4.53,21.23c0.64,9.53,3.82,29.58,0,43.89
				c-3.82,14.31-15.27,42.46-24.81,61.06c-9.54,18.6-18.13,35.78-26.24,52.95s-15.74,32.44-17.65,36.73
				c-1.91,4.29-4.29,7.61-18.37,7.39c-15.5-0.24-15.27-2.39-18.6-7.16c-6.86-9.79-27.91-60.82-36.49-80.86
				c-8.59-20.04-21.47-43.89-24.81-56.29c-3.34-12.4-5.72-29.1-4.77-45.8c0.95-16.7,4.77-33.87,4.77-33.87L143.92,281.43z"/>
			<path class="st2" d="M130.08,78.68c0,0,51.04-9.54,82.05-9.54c31.54,0,92.07,12.88,92.07,12.88s-4.29,11.93-10.97,36.73
				c-6.68,24.81-10.97,39.12-10.97,48.18s0,23.38,3.34,34.82c3.34,11.45,7.63,27.67,7.63,27.67l-166.97-4.29
				c0,0,13.12-29.82,15.03-46.04s2.86-25.76-1.43-49.61S130.08,78.68,130.08,78.68z"/>
			<path class="st10" d="M139.62,189.36c0,0,41.03,22.42,72.51,23.38c31.49,0.95,71.08-18.6,71.08-18.6l12.88,44.84
				c0,0-50.51,20.51-85.39,20.51c-32.44,0-58.68-11.45-71.56-18.13c-12.88-6.68-15.74-8.11-15.74-8.11L139.62,189.36z"/>
			<path class="st2" d="M48.74,314.1c0,0,4.77,10.97,27.19,25.76c22.42,14.79,44.84,27.19,71.56,33.39
				c26.71,6.2,38.16,6.68,38.16,6.68s-10.97,22.42-2.86,64.4s20.99,73.47,20.99,73.47s-69.65-29.58-104.47-88.73
				S48.74,314.1,48.74,314.1z"/>
			<path class="st2" d="M371.71,314.58c0,0-4.77,10.97-27.19,25.76c-22.42,14.79-44.84,27.19-71.56,33.39
				c-26.71,6.2-38.16,6.68-38.16,6.68s10.97,22.42,2.86,64.4s-20.99,73.47-20.99,73.47s69.65-29.58,104.47-88.73
				S371.71,314.58,371.71,314.58z"/>
			<g>
				<g>
					<path class="st2" d="M127.87,366.69c1.19,0.76,2.2,1.57,3.53,2.07c1.61,0.6,3.28,1.05,4.93,1.52c4.03,1.16,8.1,2.17,12.18,3.16
						c8.41,2.03,16.85,3.9,25.31,5.71c1.8,0.38,3.6,0.77,5.4,1.15c0.74,0.16,1.49,0.31,2.23,0.47c1.34,0.28,2.66,0.78,4.01,0.93
						c1.06,0.12,1.4-1.29,0.81-1.95c-1.28-1.44-3.76-1.54-5.57-1.92c-1.57-0.33-3.13-0.66-4.7-0.99c-3.97-0.84-7.93-1.7-11.89-2.57
						c-8.51-1.88-17-3.83-25.48-5.86c-2-0.48-3.98-1-5.97-1.49c-1.6-0.39-3.1-0.33-4.71-0.48
						C127.79,366.43,127.76,366.63,127.87,366.69L127.87,366.69z"/>
				</g>
			</g>
			<g>
				<g>
					<path class="st2" d="M186.47,380.33c-2.43,3.39-3.79,7.25-4.83,11.26c-1.04,3.99-1.74,8.06-2.14,12.16
						c-0.82,8.45-0.46,16.97,0.52,25.39c1.83,15.83,5.49,31.42,9.47,46.84c1.1,4.26,2.23,8.52,3.4,12.77
						c1.02,3.74,1.73,7.87,3.61,11.29c0.33,0.61,1.38,0.35,1.33-0.36c-0.2-3.35-1.43-6.61-2.32-9.83
						c-1.01-3.68-2.01-7.37-2.98-11.06c-1.94-7.38-3.8-14.77-5.45-22.22c-3.53-15.91-6.51-32.34-5.68-48.7
						c0.24-4.65,0.79-9.29,1.77-13.84c0.99-4.59,2.55-9,3.6-13.57C186.81,380.27,186.58,380.18,186.47,380.33L186.47,380.33z"/>
				</g>
			</g>
			<g>
				<g>
					<path class="st2" d="M287.75,369.31c-1.44-0.08-2.69-0.29-4.14-0.07c-1.59,0.24-3.16,0.58-4.74,0.88
						c-3.7,0.71-7.38,1.49-11.07,2.27c-7.52,1.59-15.04,3.21-22.57,4.82c-1.71,0.37-3.43,0.73-5.14,1.1
						c-1.77,0.37-4.41,0.46-5.62,1.93c-0.57,0.69-0.27,2.02,0.81,1.95c1.05-0.07,2.03-0.51,3.06-0.73c0.74-0.16,1.49-0.31,2.23-0.47
						c1.46-0.31,2.91-0.62,4.37-0.93c3.55-0.76,7.1-1.52,10.64-2.29c7.52-1.63,15.05-3.26,22.54-5.01c1.84-0.43,3.69-0.86,5.52-1.32
						c1.58-0.4,2.75-1.14,4.17-1.86C287.94,369.49,287.87,369.31,287.75,369.31L287.75,369.31z"/>
				</g>
			</g>
			<g>
				<g>
					<path class="st2" d="M233.96,380.93c0.21,0.91,0.44,1.83,0.62,2.75c0.2,1.07,0.64,2.06,0.96,3.1c0.56,1.86,1.07,3.74,1.54,5.62
						c0.96,3.89,1.59,7.85,1.96,11.83c0.76,8.01,0.45,16.09-0.41,24.07c-1.67,15.48-5.21,30.74-9.21,45.77
						c-1.11,4.16-2.25,8.31-3.41,12.45c-1.07,3.8-2.67,7.76-2.89,11.72c-0.04,0.71,1,0.97,1.33,0.36c1.7-3.08,2.38-6.74,3.33-10.1
						c1.07-3.78,2.12-7.56,3.14-11.35c1.99-7.38,3.91-14.8,5.51-22.28c3.39-15.84,6.2-32.23,5-48.48c-0.32-4.4-0.97-8.78-2.01-13.07
						c-0.54-2.23-1.16-4.47-2.02-6.6c-0.38-0.96-0.69-2.01-1.16-2.93c-0.54-1.04-1.29-2.04-1.97-2.98
						C234.15,380.66,233.92,380.75,233.96,380.93L233.96,380.93z"/>
				</g>
			</g>
			<g>
				<g>
					<path class="st2" d="M184.93,379.96c-0.55,1.19-0.83,2.56-1.08,3.84c-0.27,1.33-0.56,2.66-0.89,3.99
						c-0.67,2.69-1.58,5.33-2,8.07c-0.05,0.35,0.4,0.6,0.6,0.25c1.43-2.44,2.16-5.21,2.82-7.94c0.61-2.56,1.49-5.5,1.09-8.14
						C185.42,379.79,185.03,379.74,184.93,379.96L184.93,379.96z"/>
				</g>
			</g>
		</g>
		<g>
			<g>
				<path d="M121.28,275.84c10.56,5.15,22.04,8.78,33.39,11.73c11.35,2.95,22.96,4.94,34.62,6.14c23.36,2.4,47.17,1.04,70.16-3.71
					c6.43-1.33,12.8-2.93,19.09-4.81c3.14-0.94,6.28-1.93,9.37-3.02c1.5-0.53,3.21-1.17,4.55-2.05c0.75-0.49,1.34-1.05,2.14-1.47
					c0.77-0.4,1.55-0.78,2.33-1.16c1.34-0.66,0.4-2.84-1.02-2.41c-1.38,0.42-2.71,0.85-4.15,0.94c-1.47,0.09-2.96,0.54-4.38,0.95
					c-2.8,0.81-5.53,1.87-8.32,2.72c-5.51,1.7-11.08,3.18-16.7,4.45c-11.17,2.53-22.52,4.21-33.93,5.08
					c-22.98,1.75-46.31,0.19-68.83-4.74c-6.27-1.37-12.49-2.97-18.64-4.83c-6.28-1.91-12.41-4.21-18.6-6.39
					C120.87,272.73,119.84,275.14,121.28,275.84L121.28,275.84z"/>
			</g>
		</g>
	</g>
</g>
</svg>
